<svg width="56" height="56" viewBox="0 0 56 56" fill="none" xmlns="http://www.w3.org/2000/svg">
<rect x="1" y="1" width="54" height="54" stroke="#9F8E7E" stroke-width="2" stroke-linejoin="bevel"/>
<path d="M39.3879 19.349V9.49548H42.3079V19.349C42.3079 20.2995 42.0995 21.1166 41.6829 21.8002C41.2662 22.4773 40.6965 22.9981 39.9739 23.3627C39.2577 23.7273 38.4504 23.9095 37.552 23.9095C36.621 23.9095 35.7974 23.7533 35.0813 23.4408C34.3652 23.1283 33.802 22.6498 33.3918 22.0052C32.9817 21.3542 32.7766 20.5306 32.7766 19.5345H35.7161C35.7161 20.0554 35.7877 20.4688 35.9309 20.7748C36.0806 21.0808 36.2922 21.2989 36.5657 21.4291C36.8391 21.5593 37.1679 21.6244 37.552 21.6244C37.9231 21.6244 38.2454 21.5365 38.5188 21.3607C38.7922 21.1849 39.0038 20.9278 39.1536 20.5892C39.3098 20.2507 39.3879 19.8373 39.3879 19.349Z" fill="#EE3C20"/>
<path d="M19.0142 33.0193L16.5532 47.238H13.6919L16.1626 33.0193H19.0142Z" fill="#EE3C20"/>
<path d="M44.376 44.9529V47.238H36.8076V44.9529H44.376ZM37.7646 33.0193V47.238H34.835V33.0193H37.7646ZM43.3896 38.8103V41.0369H36.8076V38.8103H43.3896ZM44.3662 33.0193V35.3142H36.8076V33.0193H44.3662Z" fill="#EE3C20"/>
<path d="M15.7607 11.9271L11.8936 23.7142H8.77832L14.0615 9.49548H16.0439L15.7607 11.9271ZM18.9736 23.7142L15.0967 11.9271L14.7842 9.49548H16.7861L22.0986 23.7142H18.9736ZM18.7979 18.4213V20.7162H11.2881V18.4213H18.7979Z" fill="#EE3C20"/>
</svg>
